<svg height="511pt" viewBox="-55 0 511 511.9996" width="511pt" xmlns="http://www.w3.org/2000/svg"><path d="m286.636719 386.855469c-65.324219 4.382812-120.011719-49.660157-121.882813-115.101563-.621094-21.691406-11.910156-41.609375-30.199218-53.289062-55.179688-35.230469-71.347657-108.527344-36.109376-163.707032 35.238282-55.179687 108.53125-71.34375 163.707032-36.113281 84.535156 53.984375 136.71875 146.066407 139.585937 246.324219 1.300781 45.4375-28.496093 116.074219-115.101562 121.886719zm0 0" fill="#7dce5c"/><path d="m331.085938 236.371094c-1.3125-54.382813-26.953126-128.085938-105.6875-160.210938-53.628907-21.882812-109.152344-7.640625-139.109376 3.664063-17.550781 50.640625 1.109376 108.535156 48.261719 138.640625 18.285157 11.679687 29.574219 31.597656 30.195313 53.285156 1.871094 65.445312 56.5625 119.488281 121.882812 115.105469 64.691406-4.34375 97.695313-44.851563 109.707032-84.011719-37.691407-.414062-64.292969-26.953125-65.25-66.472656zm0 0" fill="#59c230"/><path d="m42.597656 483.398438c-51.382812-40.570313-55.679687-117.339844-13.164062-167.125 14.089844-16.5 19.082031-38.84375 13.355468-59.773438-17.28125-63.148438 19.902344-128.347656 83.050782-145.625 63.148437-17.28125 128.347656 19.902344 145.625 83.046875 26.476562 96.742187 3.394531 200.039063-61.738282 276.308594-29.519531 34.570312-99.003906 66.960937-167.128906 13.167969zm0 0" fill="#9cda82"/><path d="m139.796875 309.574219c9.96875-44.613281-18.117187-88.859375-62.730469-98.828125-12.855468-2.875-25.6875-2.5625-37.671875.367187-1.777343 14.78125-.792969 30.136719 3.382813 45.382813 5.726562 20.929687.730468 43.273437-13.355469 59.773437-10.195313 11.9375-17.679687 25.421875-22.488281 39.589844 9.617187 7.792969 21.132812 13.566406 34.03125 16.445313 44.613281 9.972656 88.863281-18.113282 98.832031-62.730469zm0 0" fill="#f9ee80"/><g fill="#454545"><path d="m209.070312 206.453125c-4.199218-.75-7-4.761719-6.25-8.960937l2.25-12.628907c.75-4.199219 4.761719-7 8.960938-6.25 4.203125.75 7 4.761719 6.253906 8.960938l-2.25 12.628906c-.75 4.199219-4.761718 7-8.964844 6.25zm0 0"/><path d="m112.910156 189.324219c-4.199218-.75-7-4.761719-6.25-8.964844l2.25-12.625c.746094-4.203125 4.761719-7 8.960938-6.253906 4.203125.75 7 4.761719 6.25 8.964843l-2.25 12.625c-.746094 4.203126-4.757813 7-8.960938 6.253907zm0 0"/><path d="m168.894531 183.609375c-2.148437 2.195313-4.683593 2.054687-5.691406 1.875-1.011719-.175781-3.488281-.902344-4.699219-3.726563-1.679687-3.921874-6.222656-5.738281-10.144531-4.058593-3.921875 1.679687-5.738281 6.222656-4.058594 10.144531 2.898438 6.761719 8.949219 11.566406 16.191407 12.855469 7.238281 1.289062 14.578124-1.128907 19.632812-6.472657 2.929688-3.101562 2.792969-7.992187-.304688-10.921874-1.136718-1.074219-6.441406-4.28125-10.925781.304687zm0 0"/></g></svg>