<svg height="512pt" viewBox="-54 0 512 512.00015" width="512pt" xmlns="http://www.w3.org/2000/svg"><path d="m285.25 383.023438c-63.40625 4.253906-116.492188-48.214844-118.3125-111.746094-.601562-21.054688-11.558594-40.394532-29.308594-51.730469-53.5625-34.207031-69.257812-105.363281-35.054687-158.933594 34.203125-53.570312 105.351562-69.261719 158.910156-35.058593 82.058594 52.40625 132.710937 141.804687 135.496094 239.136718 1.265625 44.117188-27.660157 112.6875-111.730469 118.332032zm0 0" fill="#7dce5c"/><path d="m328.398438 236.929688c-1.273438-52.796876-26.164063-124.351563-102.589844-155.539063-52.058594-21.242187-105.953125-7.417969-135.035156 3.5625-17.035157 49.160156 1.078124 105.363281 46.847656 134.59375 17.75 11.335937 28.710937 30.675781 29.3125 51.730469 1.816406 63.535156 54.902344 116 118.3125 111.746094 62.796875-4.214844 94.832031-43.542969 106.492187-81.558594-36.585937-.402344-62.410156-26.167969-63.339843-64.535156zm0 0" fill="#59c230"/><path d="m48.363281 476.75c-49.875-39.386719-54.050781-113.914062-12.777343-162.25 13.675781-16.019531 18.519531-37.710938 12.964843-58.027344-16.777343-61.304687 19.316407-124.601562 80.613281-141.378906 61.300782-16.777344 124.589844 19.324219 141.359376 80.625 25.699218 93.921875 3.296874 194.203125-59.929688 268.253906-28.65625 33.554688-96.101562 65-162.230469 12.777344zm0 0" fill="#9cda82"/><path d="m142.710938 308c9.679687-43.316406-17.585938-86.273438-60.890626-95.949219-12.480468-2.789062-24.933593-2.488281-36.566406.355469-1.726562 14.355469-.769531 29.261719 3.28125 44.0625 5.558594 20.316406.710938 42.011719-12.964844 58.027344-9.894531 11.589844-17.160156 24.679687-21.828124 38.433594 9.335937 7.566406 20.511718 13.171874 33.035156 15.96875 43.304687 9.679687 86.257812-17.585938 95.933594-60.898438zm0 0" fill="#f9ee80"/><path d="m214.773438 180.855469c-4.078126-.726563-7.972657 1.992187-8.699219 6.070312l-2.183594 12.257813c-.726563 4.078125 1.992187 7.972656 6.070313 8.699218 4.078124.726563 7.972656-1.992187 8.695312-6.070312l2.1875-12.257812c.726562-4.078126-1.992188-7.972657-6.070312-8.699219zm0 0"/><path d="m121.429688 164.226562c-4.078126-.726562-7.972657 1.988282-8.699219 6.066407l-2.183594 12.261719c-.726563 4.078124 1.992187 7.972656 6.066406 8.699218 4.078125.726563 7.976563-1.992187 8.699219-6.070312l2.1875-12.257813c.722656-4.078125-1.992188-7.976562-6.070312-8.699219zm0 0"/><path d="m170.960938 185.707031c-2.085938 2.132813-4.550782 1.996094-5.527344 1.820313-.980469-.171875-3.382813-.875-4.558594-3.621094-1.632812-3.804688-6.042969-5.570312-9.851562-3.9375-3.804688 1.632812-5.570313 6.042969-3.9375 9.847656 2.8125 6.5625 8.6875 11.230469 15.714843 12.480469 7.027344 1.253906 14.152344-1.097656 19.058594-6.285156 2.84375-3.007813 2.710937-7.757813-.296875-10.605469-1.101562-1.039062-6.25-4.152344-10.601562.300781zm0 0"/><path d="m404.476562 264.480469c-.898437-31.558594-6.703124-62.605469-17.246093-92.289063-1.386719-3.902344-5.671875-5.941406-9.578125-4.554687-3.902344 1.386719-5.941406 5.675781-4.554688 9.578125 10.015625 28.199218 15.527344 57.707031 16.386719 87.695312 1.1875 41.5625-31.800781 111.929688-118.898437 110.5625 20.78125-57.578125 23.804687-120.953125 7.171874-181.734375-17.835937-65.195312-85.382812-103.722656-150.574218-85.882812-12.675782 3.46875-24.503906 8.84375-35.171875 15.867187-.222657-20.796875 5.59375-41.390625 16.882812-59.070312 31.925781-49.996094 98.5625-64.7031252 148.554688-32.773438 44.765625 28.589844 80.617187 68.933594 103.679687 116.679688 1.296875 2.679687 5.90625 5.546875 10.015625 3.492187 3.707031-1.851562 5.292969-6.285156 3.492188-10.015625-24.273438-50.25-62.003907-92.714844-109.113281-122.800781-56.960938-36.378906-132.894532-19.625-169.269532 37.34375-14.847656 23.246094-21.410156 50.914063-18.648437 78.261719-9.640625 8.675781-17.929688 18.933594-24.542969 30.527344-16.21875 28.445312-20.390625 61.503906-11.75 93.082031 4.902344 17.921875.628906 37.054687-11.433594 51.179687-21.902344 25.652344-32.582031 59.589844-29.292968 93.105469 3.144531 32.042969 18.460937 60.421875 43.128906 79.902344 28.894531 22.820312 56.753906 29.363281 79.210937 29.363281 42.726563 0 75.890625-22.691406 93.371094-43.160156 20.449219-23.953125 36.730469-50.582032 48.621094-78.839844 62.992187 4.960938 99.203125-27.289062 114.1875-47.203125 16.660156-22.132813 26.144531-51.410156 25.371093-78.316406zm-199.585937 194.617187c-16.597656 19.4375-46.683594 37.96875-81.847656 37.964844-22.039063 0-46.085938-7.285156-70.03125-26.199219-21.441407-16.929687-34.753907-41.644531-37.496094-69.59375-2.894531-29.476562 6.5-59.328125 25.769531-81.898437 15.292969-17.910156 20.710938-42.164063 14.496094-64.878906-3.242188-11.855469-4.421875-23.945313-3.605469-35.855469 9.296875-1.585938 18.695313-1.347657 28.007813.734375 39.199218 8.761718 63.96875 47.785156 55.207031 86.992187-8.757813 39.203125-47.769531 63.976563-86.980469 55.214844-1.003906-.222656-10.523437-3.488281-12.1875 4.566406-1.703125 8.246094 7.710938 9.804688 8.917969 10.074219 6.425781 1.4375 12.839844 2.125 19.167969 2.125 40.214844 0 76.59375-27.859375 85.722656-68.710938 10.5625-47.28125-19.304688-94.339843-66.578125-104.90625-9.65625-2.15625-19.394531-2.671874-29.0625-1.558593 2.304687-10.519531 6.214844-20.746094 11.703125-30.371094 14.234375-24.960937 52.925781-54.296875 93.410156-54.296875 47.273438 0 90.71875 31.449219 103.785156 79.195312 25.042969 91.527344 3.210938 189.246094-58.398437 261.402344zm0 0"/></svg>